<svg width="768" height="377" viewBox="0 0 768 377" fill="none" xmlns="http://www.w3.org/2000/svg">
<g clip-path="url(#clip0_2077_5976)">
<rect x="1" y="1" width="766.35" height="375.5" fill="white"/>
<path d="M27.5778 63V35.3636H38.6431C40.6763 35.3636 42.372 35.665 43.7305 36.2678C45.0889 36.8705 46.11 37.7071 46.7937 38.7777C47.4774 39.8393 47.8192 41.0627 47.8192 42.4482C47.8192 43.5277 47.6033 44.4768 47.1715 45.2955C46.7397 46.1051 46.146 46.7708 45.3903 47.2926C44.6436 47.8054 43.7889 48.1697 42.8264 48.3857V48.6555C43.8789 48.7005 44.864 48.9974 45.7816 49.5462C46.7082 50.0949 47.4594 50.8641 48.0352 51.8537C48.6109 52.8343 48.8988 54.0038 48.8988 55.3622C48.8988 56.8286 48.5344 58.1375 47.8058 59.2891C47.0861 60.4316 46.02 61.3357 44.6076 62.0014C43.1952 62.6671 41.4544 63 39.3853 63H27.5778ZM33.4208 58.223H38.1843C39.8126 58.223 41.0001 57.9126 41.7468 57.2919C42.4935 56.6622 42.8668 55.8255 42.8668 54.782C42.8668 54.0173 42.6824 53.3426 42.3136 52.7578C41.9447 52.1731 41.4184 51.7143 40.7347 51.3814C40.06 51.0485 39.2549 50.8821 38.3192 50.8821H33.4208V58.223ZM33.4208 46.9283H37.7525C38.5531 46.9283 39.2638 46.7888 39.8846 46.5099C40.5143 46.2221 41.0091 45.8172 41.369 45.2955C41.7378 44.7737 41.9222 44.1484 41.9222 43.4197C41.9222 42.4212 41.5669 41.616 40.8562 41.0043C40.1545 40.3925 39.1559 40.0866 37.8604 40.0866H33.4208V46.9283ZM51.6483 40.1811V35.3636H74.3457V40.1811H65.8848V63H60.1092V40.1811H51.6483ZM101.206 45.0391H95.2956C95.1877 44.2744 94.9673 43.5952 94.6344 43.0014C94.3016 42.3987 93.8742 41.8859 93.3525 41.4631C92.8307 41.0402 92.2279 40.7164 91.5442 40.4915C90.8695 40.2666 90.1363 40.1541 89.3446 40.1541C87.9142 40.1541 86.6683 40.5095 85.6067 41.2202C84.5452 41.9219 83.722 42.9474 83.1373 44.2969C82.5525 45.6373 82.2601 47.2656 82.2601 49.1818C82.2601 51.152 82.5525 52.8073 83.1373 54.1477C83.731 55.4882 84.5587 56.5002 85.6202 57.1839C86.6818 57.8677 87.9097 58.2095 89.3042 58.2095C90.0868 58.2095 90.811 58.1061 91.4767 57.8991C92.1515 57.6922 92.7497 57.3909 93.2715 56.995C93.7933 56.5902 94.2251 56.0999 94.5669 55.5241C94.9178 54.9484 95.1607 54.2917 95.2956 53.554L101.206 53.581C101.053 54.8494 100.671 56.0729 100.059 57.2514C99.4564 58.4209 98.6422 59.469 97.6167 60.3956C96.6001 61.3132 95.3856 62.0419 93.9732 62.5817C92.5698 63.1125 90.9819 63.3778 89.2097 63.3778C86.7447 63.3778 84.5407 62.8201 82.5975 61.7045C80.6633 60.589 79.1339 58.9742 78.0094 56.8601C76.8939 54.746 76.3361 52.1866 76.3361 49.1818C76.3361 46.1681 76.9029 43.6042 78.0364 41.4901C79.1699 39.3759 80.7083 37.7656 82.6515 36.6591C84.5946 35.5436 86.7807 34.9858 89.2097 34.9858C90.811 34.9858 92.2954 35.2107 93.6628 35.6605C95.0392 36.1103 96.2582 36.767 97.3198 37.6307C98.3813 38.4853 99.245 39.5334 99.9107 40.7749C100.585 42.0163 101.017 43.4377 101.206 45.0391Z" fill="#373737"/>
<path d="M26.9371 93V78.4545H31.8519C32.993 78.4545 33.9258 78.6605 34.6502 79.0724C35.3794 79.4796 35.9192 80.0312 36.2695 80.7273C36.6199 81.4233 36.7951 82.1998 36.7951 83.0568C36.7951 83.9138 36.6199 84.6927 36.2695 85.3935C35.9239 86.0942 35.3889 86.6529 34.6644 87.0696C33.94 87.4815 33.012 87.6875 31.8803 87.6875H28.3576V86.125H31.8235C32.6048 86.125 33.2321 85.9901 33.7056 85.7202C34.1791 85.4503 34.5224 85.0857 34.7354 84.6264C34.9532 84.1624 35.0621 83.6392 35.0621 83.0568C35.0621 82.4744 34.9532 81.9536 34.7354 81.4943C34.5224 81.035 34.1767 80.6752 33.6985 80.4148C33.2203 80.1496 32.5858 80.017 31.7951 80.017H28.6985V93H26.9371ZM39.4052 93V82.0909H41.0245V83.7386H41.1381C41.337 83.1989 41.6969 82.7609 42.2177 82.4247C42.7385 82.0885 43.3256 81.9205 43.979 81.9205C44.1022 81.9205 44.256 81.9228 44.4407 81.9276C44.6254 81.9323 44.765 81.9394 44.8597 81.9489V83.6534C44.8029 83.6392 44.6727 83.6179 44.4691 83.5895C44.2702 83.5563 44.0595 83.5398 43.837 83.5398C43.3067 83.5398 42.8332 83.651 42.4165 83.8736C42.0046 84.0914 41.6779 84.3944 41.4364 84.7827C41.1997 85.1662 41.0813 85.6042 41.0813 86.0966V93H39.4052ZM46.8466 93V82.0909H48.5227V93H46.8466ZM47.6989 80.2727C47.3722 80.2727 47.0904 80.1615 46.8537 79.9389C46.6217 79.7164 46.5057 79.4489 46.5057 79.1364C46.5057 78.8239 46.6217 78.5563 46.8537 78.3338C47.0904 78.1113 47.3722 78 47.6989 78C48.0256 78 48.3049 78.1113 48.5369 78.3338C48.7737 78.5563 48.892 78.8239 48.892 79.1364C48.892 79.4489 48.7737 79.7164 48.5369 79.9389C48.3049 80.1615 48.0256 80.2727 47.6989 80.2727ZM56.0245 93.2273C55.0018 93.2273 54.1211 92.9858 53.3825 92.5028C52.6438 92.0199 52.0756 91.3546 51.6779 90.5071C51.2802 89.6596 51.0813 88.6913 51.0813 87.6023C51.0813 86.4943 51.2849 85.5166 51.6921 84.669C52.104 83.8168 52.677 83.1515 53.4109 82.6733C54.1495 82.1903 55.0112 81.9489 55.9961 81.9489C56.7631 81.9489 57.4544 82.0909 58.07 82.375C58.6855 82.6591 59.1897 83.0568 59.5827 83.5682C59.9757 84.0795 60.2196 84.6761 60.3143 85.358H58.6381C58.5103 84.8608 58.2262 84.4205 57.7859 84.0369C57.3503 83.6487 56.7631 83.4545 56.0245 83.4545C55.3711 83.4545 54.7982 83.625 54.3058 83.9659C53.8181 84.3021 53.4369 84.7779 53.1623 85.3935C52.8924 86.0043 52.7575 86.7216 52.7575 87.5455C52.7575 88.3883 52.89 89.1222 53.1552 89.7472C53.4251 90.3722 53.8039 90.8575 54.2915 91.2031C54.784 91.5488 55.3616 91.7216 56.0245 91.7216C56.4601 91.7216 56.8555 91.6458 57.2106 91.4943C57.5657 91.3428 57.8664 91.125 58.1126 90.8409C58.3588 90.5568 58.534 90.2159 58.6381 89.8182H60.3143C60.2196 90.4621 59.9852 91.0421 59.6112 91.5582C59.2418 92.0696 58.7518 92.4768 58.141 92.7798C57.5349 93.0781 56.8294 93.2273 56.0245 93.2273ZM67.3384 93.2273C66.2873 93.2273 65.3806 92.9953 64.6183 92.5312C63.8607 92.0625 63.2759 91.4091 62.864 90.571C62.4568 89.7282 62.2532 88.7481 62.2532 87.6307C62.2532 86.5133 62.4568 85.5284 62.864 84.6761C63.2759 83.8191 63.8488 83.1515 64.5827 82.6733C65.3214 82.1903 66.1831 81.9489 67.168 81.9489C67.7362 81.9489 68.2972 82.0436 68.8512 82.233C69.4052 82.4223 69.9094 82.7301 70.364 83.1562C70.8185 83.5777 71.1808 84.1364 71.4506 84.8324C71.7205 85.5284 71.8555 86.3854 71.8555 87.4034V88.1136H63.4464V86.6648H70.1509C70.1509 86.0492 70.0278 85.5 69.7816 85.017C69.5401 84.5341 69.1945 84.1529 68.7447 83.8736C68.2996 83.5942 67.774 83.4545 67.168 83.4545C66.5004 83.4545 65.9227 83.6203 65.435 83.9517C64.9521 84.2784 64.5804 84.7045 64.32 85.2301C64.0595 85.7557 63.9293 86.3191 63.9293 86.9205V87.8864C63.9293 88.7102 64.0714 89.4086 64.3555 89.9815C64.6443 90.5497 65.0444 90.983 65.5558 91.2812C66.0671 91.5748 66.6613 91.7216 67.3384 91.7216C67.7788 91.7216 68.1765 91.66 68.5316 91.5369C68.8915 91.4091 69.2016 91.2197 69.462 90.9688C69.7224 90.7131 69.9237 90.3958 70.0657 90.017L71.685 90.4716C71.5146 91.0208 71.2281 91.5038 70.8256 91.9205C70.4232 92.3324 69.926 92.6544 69.3342 92.8864C68.7423 93.1136 68.0771 93.2273 67.3384 93.2273ZM84.7745 82.0909V83.5114H79.1211V82.0909H84.7745ZM80.7688 79.4773H82.445V89.875C82.445 90.3485 82.5136 90.7036 82.6509 90.9403C82.793 91.1723 82.9729 91.3286 83.1907 91.4091C83.4132 91.4848 83.6476 91.5227 83.8938 91.5227C84.0785 91.5227 84.23 91.5133 84.3484 91.4943C84.4667 91.4706 84.5614 91.4517 84.6325 91.4375L84.9734 92.9432C84.8597 92.9858 84.7011 93.0284 84.4975 93.071C84.2939 93.1184 84.0359 93.142 83.7234 93.142C83.2499 93.142 82.7859 93.0402 82.3313 92.8366C81.8815 92.633 81.5075 92.3229 81.2092 91.9062C80.9156 91.4896 80.7688 90.964 80.7688 90.3295V79.4773ZM91.6104 93.2273C90.6256 93.2273 89.7615 92.9929 89.0181 92.5241C88.2795 92.0554 87.7018 91.3996 87.2852 90.5568C86.8732 89.714 86.6673 88.7292 86.6673 87.6023C86.6673 86.4659 86.8732 85.474 87.2852 84.6264C87.7018 83.7789 88.2795 83.1207 89.0181 82.652C89.7615 82.1832 90.6256 81.9489 91.6104 81.9489C92.5953 81.9489 93.457 82.1832 94.1957 82.652C94.939 83.1207 95.5167 83.7789 95.9286 84.6264C96.3453 85.474 96.5536 86.4659 96.5536 87.6023C96.5536 88.7292 96.3453 89.714 95.9286 90.5568C95.5167 91.3996 94.939 92.0554 94.1957 92.5241C93.457 92.9929 92.5953 93.2273 91.6104 93.2273ZM91.6104 91.7216C92.3585 91.7216 92.9741 91.5298 93.457 91.1463C93.94 90.7628 94.2975 90.2585 94.5295 89.6335C94.7615 89.0085 94.8775 88.3314 94.8775 87.6023C94.8775 86.8731 94.7615 86.1937 94.5295 85.5639C94.2975 84.9342 93.94 84.4252 93.457 84.0369C92.9741 83.6487 92.3585 83.4545 91.6104 83.4545C90.8623 83.4545 90.2468 83.6487 89.7638 84.0369C89.2809 84.4252 88.9234 84.9342 88.6914 85.5639C88.4594 86.1937 88.3434 86.8731 88.3434 87.6023C88.3434 88.3314 88.4594 89.0085 88.6914 89.6335C88.9234 90.2585 89.2809 90.7628 89.7638 91.1463C90.2468 91.5298 90.8623 91.7216 91.6104 91.7216ZM103.232 93.2273C102.322 93.2273 101.52 92.9976 100.824 92.5384C100.128 92.0743 99.5833 91.4209 99.1903 90.5781C98.7973 89.7306 98.6009 88.7292 98.6009 87.5739C98.6009 86.428 98.7973 85.4337 99.1903 84.5909C99.5833 83.7481 100.13 83.0971 100.831 82.6378C101.532 82.1785 102.341 81.9489 103.26 81.9489C103.97 81.9489 104.531 82.0672 104.943 82.304C105.36 82.536 105.677 82.8011 105.895 83.0994C106.117 83.393 106.29 83.6345 106.413 83.8239H106.555V78.4545H108.232V93H106.612V91.3239H106.413C106.29 91.5227 106.115 91.7737 105.888 92.0767C105.661 92.375 105.336 92.6425 104.915 92.8793C104.493 93.1113 103.932 93.2273 103.232 93.2273ZM103.459 91.7216C104.131 91.7216 104.699 91.5464 105.163 91.196C105.627 90.8409 105.98 90.3509 106.222 89.7259C106.463 89.0961 106.584 88.3693 106.584 87.5455C106.584 86.7311 106.465 86.0185 106.229 85.4077C105.992 84.7921 105.642 84.3139 105.178 83.973C104.714 83.6274 104.141 83.4545 103.459 83.4545C102.749 83.4545 102.157 83.6368 101.683 84.0014C101.214 84.3613 100.862 84.8513 100.625 85.4716C100.393 86.0871 100.277 86.7784 100.277 87.5455C100.277 88.322 100.395 89.0275 100.632 89.6619C100.874 90.2917 101.229 90.7936 101.697 91.1676C102.171 91.5369 102.758 91.7216 103.459 91.7216ZM114.744 93.2557C114.053 93.2557 113.426 93.1255 112.862 92.8651C112.299 92.5999 111.851 92.2188 111.52 91.7216C111.188 91.2197 111.023 90.6136 111.023 89.9034C111.023 89.2784 111.146 88.7718 111.392 88.3835C111.638 87.9905 111.967 87.6828 112.379 87.4602C112.791 87.2377 113.246 87.072 113.743 86.9631C114.245 86.8494 114.749 86.7595 115.256 86.6932C115.919 86.608 116.456 86.544 116.868 86.5014C117.285 86.4541 117.588 86.3759 117.777 86.267C117.971 86.1581 118.068 85.9687 118.068 85.6989V85.642C118.068 84.9413 117.876 84.3968 117.493 84.0085C117.114 83.6203 116.539 83.4261 115.767 83.4261C114.967 83.4261 114.339 83.6013 113.885 83.9517C113.43 84.3021 113.111 84.6761 112.926 85.0739L111.335 84.5057C111.619 83.8428 111.998 83.3267 112.472 82.9574C112.95 82.5833 113.471 82.3229 114.034 82.1761C114.602 82.0246 115.161 81.9489 115.71 81.9489C116.061 81.9489 116.463 81.9915 116.918 82.0767C117.377 82.1572 117.82 82.3253 118.246 82.581C118.677 82.8366 119.034 83.2225 119.318 83.7386C119.602 84.2547 119.744 84.946 119.744 85.8125V93H118.068V91.5227H117.983C117.869 91.7595 117.68 92.0128 117.415 92.2827C117.15 92.5526 116.797 92.7822 116.357 92.9716C115.916 93.161 115.379 93.2557 114.744 93.2557ZM115 91.75C115.663 91.75 116.222 91.6198 116.676 91.3594C117.135 91.099 117.481 90.7628 117.713 90.3509C117.95 89.9389 118.068 89.5057 118.068 89.0511V87.517C117.997 87.6023 117.841 87.6804 117.599 87.7514C117.363 87.8177 117.088 87.8769 116.776 87.929C116.468 87.9763 116.167 88.0189 115.874 88.0568C115.585 88.09 115.35 88.1184 115.17 88.142C114.735 88.1989 114.328 88.2912 113.949 88.419C113.575 88.5421 113.272 88.7292 113.04 88.9801C112.813 89.2263 112.699 89.5625 112.699 89.9886C112.699 90.571 112.914 91.0114 113.345 91.3097C113.781 91.6032 114.332 91.75 115 91.75ZM123.493 97.0909C123.208 97.0909 122.955 97.0672 122.733 97.0199C122.51 96.9773 122.356 96.9347 122.271 96.892L122.697 95.4148C123.104 95.5189 123.464 95.5568 123.777 95.5284C124.089 95.5 124.366 95.3603 124.608 95.1094C124.854 94.8632 125.079 94.4631 125.282 93.9091L125.595 93.0568L121.561 82.0909H123.379L126.39 90.7841H126.504L129.515 82.0909H131.333L126.703 94.5909C126.494 95.1544 126.236 95.6207 125.929 95.9901C125.621 96.3641 125.263 96.6411 124.856 96.821C124.454 97.0009 123.999 97.0909 123.493 97.0909Z" fill="#666666"/>
<path d="M579.327 88.6761C575.721 88.6761 572.51 88.0563 569.692 86.8168C566.891 85.5611 564.678 83.8385 563.052 81.6491C561.442 79.4437 560.613 76.9001 560.565 74.0185H571.093C571.157 75.2259 571.552 76.2884 572.276 77.206C573.017 78.1075 573.999 78.8078 575.222 79.3068C576.446 79.8059 577.822 80.0554 579.352 80.0554C580.945 80.0554 582.354 79.7737 583.577 79.2102C584.801 78.6468 585.759 77.866 586.451 76.8679C587.143 75.8698 587.489 74.7187 587.489 73.4148C587.489 72.0947 587.119 70.9276 586.379 69.9134C585.654 68.883 584.608 68.0781 583.239 67.4986C581.887 66.919 580.277 66.6293 578.41 66.6293H573.798V58.9503H578.41C579.987 58.9503 581.38 58.6766 582.587 58.1293C583.811 57.5819 584.761 56.8253 585.437 55.8594C586.113 54.8774 586.451 53.7344 586.451 52.4304C586.451 51.1908 586.153 50.1042 585.558 49.1705C584.978 48.2206 584.157 47.4801 583.094 46.9489C582.048 46.4176 580.825 46.152 579.424 46.152C578.007 46.152 576.711 46.4096 575.536 46.9247C574.361 47.4238 573.419 48.1401 572.711 49.0739C572.003 50.0076 571.624 51.1023 571.576 52.358H561.555C561.603 49.5085 562.416 46.9972 563.994 44.8239C565.571 42.6506 567.696 40.9522 570.369 39.7287C573.057 38.4891 576.092 37.8693 579.472 37.8693C582.885 37.8693 585.871 38.4891 588.431 39.7287C590.991 40.9683 592.979 42.6425 594.396 44.7514C595.828 46.8442 596.537 49.1946 596.521 51.8026C596.537 54.5715 595.675 56.8816 593.937 58.733C592.214 60.5843 589.969 61.7595 587.2 62.2585V62.6449C590.838 63.1117 593.607 64.3755 595.506 66.4361C597.422 68.4806 598.372 71.0402 598.356 74.1151C598.372 76.9323 597.559 79.4356 595.917 81.625C594.291 83.8144 592.045 85.5369 589.18 86.7926C586.314 88.0483 583.03 88.6761 579.327 88.6761ZM623.765 37.8693C626.309 37.8693 628.756 38.2959 631.106 39.1491C633.473 40.0024 635.582 41.3627 637.433 43.2301C639.3 45.0975 640.773 47.5767 641.852 50.6676C642.947 53.7424 643.502 57.5175 643.518 61.9929C643.518 66.1946 643.043 69.9455 642.093 73.2457C641.16 76.5298 639.815 79.3229 638.061 81.625C636.306 83.9271 634.189 85.6818 631.71 86.8892C629.231 88.0805 626.462 88.6761 623.403 88.6761C620.103 88.6761 617.189 88.0402 614.662 86.7685C612.134 85.4806 610.098 83.7339 608.552 81.5284C607.023 79.3068 606.097 76.8116 605.775 74.0426H616.086C616.489 75.8456 617.334 77.2462 618.622 78.2443C619.91 79.2263 621.503 79.7173 623.403 79.7173C626.623 79.7173 629.07 78.3168 630.744 75.5156C632.418 72.6984 633.263 68.8428 633.279 63.9489H632.941C632.201 65.3977 631.203 66.6454 629.947 67.6918C628.691 68.7221 627.251 69.5189 625.625 70.0824C624.015 70.6458 622.3 70.9276 620.481 70.9276C617.567 70.9276 614.967 70.2434 612.681 68.875C610.395 67.5066 608.592 65.6231 607.272 63.2244C605.952 60.8258 605.292 58.089 605.292 55.0142C605.276 51.6979 606.041 48.7438 607.586 46.152C609.132 43.5601 611.289 41.5317 614.058 40.0668C616.843 38.5857 620.079 37.8532 623.765 37.8693ZM623.838 46.0795C622.212 46.0795 620.763 46.4659 619.491 47.2386C618.235 48.0114 617.237 49.0497 616.497 50.3537C615.772 51.6577 615.418 53.1146 615.434 54.7244C615.434 56.3504 615.788 57.8153 616.497 59.1193C617.221 60.4072 618.203 61.4375 619.443 62.2102C620.699 62.9669 622.131 63.3452 623.741 63.3452C624.949 63.3452 626.067 63.1198 627.098 62.669C628.128 62.2183 629.021 61.5985 629.778 60.8097C630.551 60.0047 631.154 59.0791 631.589 58.0327C632.024 56.9863 632.241 55.8755 632.241 54.7003C632.225 53.1387 631.855 51.706 631.13 50.402C630.406 49.098 629.408 48.0516 628.136 47.2628C626.864 46.474 625.431 46.0795 623.838 46.0795ZM654.88 88.6278C653.286 88.6278 651.917 88.0644 650.775 86.9375C649.648 85.7945 649.084 84.4261 649.084 82.8324C649.084 81.2547 649.648 79.9025 650.775 78.7756C651.917 77.6487 653.286 77.0852 654.88 77.0852C656.425 77.0852 657.777 77.6487 658.936 78.7756C660.096 79.9025 660.675 81.2547 660.675 82.8324C660.675 83.8949 660.401 84.8688 659.854 85.7543C659.323 86.6236 658.623 87.3239 657.753 87.8551C656.884 88.3703 655.926 88.6278 654.88 88.6278ZM669.121 88L689.622 47.4318V47.0938H665.74V38.5455H700.44V47.2145L679.915 88H669.121ZM717.024 77.3267L717.048 64.9872H718.545L730.426 50.9091H742.234L726.272 69.5511H723.833L717.024 77.3267ZM707.703 88V38.5455H717.99V88H707.703ZM730.885 88L719.97 71.8452L726.828 64.5767L742.934 88H730.885Z" fill="#373737"/>
<g clip-path="url(#clip1_2077_5976)">
<g clip-path="url(#clip2_2077_5976)">
<path d="M73.927 230.537C63.3753 224.077 39.5791 240.966 29 250.218V352.5H740V293.366C733.543 295.889 715.599 301.339 695.485 302.954C670.343 304.972 666.633 303.459 650.146 283.273C633.659 263.087 627.477 191.931 605.631 149.54C583.786 107.15 572.657 115.224 561.941 124.056C551.224 132.887 526.494 227.509 517.838 246.685C509.183 265.862 485.689 267.881 473.323 269.142C460.958 270.404 437.876 274.694 429.221 278.983C420.565 283.273 398.308 319.355 384.706 320.869C371.104 322.383 355.854 310.524 340.191 298.664C324.529 286.805 307.217 267.881 294.44 267.881C281.663 267.881 266.412 311.785 251.162 312.542C235.911 313.299 219.837 292.609 207.059 283.777C194.282 274.946 174.91 266.114 161.308 266.619C147.706 267.124 131.631 298.664 118.442 298.16C105.252 297.655 87.1165 238.611 73.927 230.537Z" fill="#F1F1F1"/>
<g clip-path="url(#clip3_2077_5976)">
<path d="M29 250.218C39.5791 240.966 63.3753 224.077 73.927 230.537C87.1165 238.611 105.252 297.655 118.442 298.16C131.631 298.664 147.706 267.124 161.308 266.619C174.91 266.114 194.282 274.946 207.059 283.777C219.837 292.609 235.911 313.299 251.162 312.542C266.412 311.785 281.663 267.881 294.44 267.881C307.217 267.881 324.529 286.805 340.191 298.664C355.854 310.524 371.104 322.383 384.706 320.869C398.308 319.355 420.565 283.273 429.221 278.983C437.877 274.694 460.958 270.404 473.323 269.142C485.689 267.881 509.183 265.862 517.838 246.685C526.494 227.509 551.224 132.887 561.941 124.056C572.657 115.224 583.786 107.15 605.631 149.54C627.477 191.931 633.659 263.087 650.146 283.273C666.633 303.459 670.343 304.972 695.485 302.954C715.599 301.339 733.543 295.889 740 293.366" stroke="#373737"/>
<ellipse cx="28.6751" cy="250.441" rx="2.67511" ry="2.67833" fill="#373737"/>
<ellipse cx="75.6751" cy="231.678" rx="2.67511" ry="2.67833" fill="#373737"/>
<ellipse cx="122.675" cy="297.678" rx="2.67511" ry="2.67833" fill="#373737"/>
<ellipse cx="169.675" cy="267.678" rx="2.67511" ry="2.67833" fill="#373737"/>
<ellipse cx="216.675" cy="292.678" rx="2.67511" ry="2.67833" fill="#373737"/>
<ellipse cx="263.675" cy="304.678" rx="2.67511" ry="2.67833" fill="#373737"/>
<ellipse cx="310.675" cy="274.678" rx="2.67511" ry="2.67833" fill="#373737"/>
<ellipse cx="357.675" cy="311.678" rx="2.67511" ry="2.67833" fill="#373737"/>
<ellipse cx="404.675" cy="305.678" rx="2.67511" ry="2.67833" fill="#373737"/>
<ellipse cx="451.675" cy="272.678" rx="2.67511" ry="2.67833" fill="#373737"/>
<ellipse cx="498.675" cy="263.678" rx="2.67511" ry="2.67833" fill="#373737"/>
<ellipse cx="545.675" cy="160.678" rx="2.67511" ry="2.67833" fill="#373737"/>
<ellipse cx="592.675" cy="128.678" rx="2.67511" ry="2.67833" fill="#373737"/>
<ellipse cx="639.675" cy="259.678" rx="2.67511" ry="2.67833" fill="#373737"/>
<ellipse cx="686.675" cy="303.678" rx="2.67511" ry="2.67833" fill="#373737"/>
<circle cx="739.675" cy="293.675" r="2.67511" fill="#373737"/>
</g>
</g>
</g>
</g>
<rect x="1" y="1" width="766.35" height="375.5" stroke="black"/>
<defs>
<clipPath id="clip0_2077_5976">
<rect x="1" y="1" width="766.35" height="375.5" fill="white"/>
</clipPath>
<clipPath id="clip1_2077_5976">
<rect width="766.35" height="251.5" fill="white" transform="translate(1 101)"/>
</clipPath>
<clipPath id="clip2_2077_5976">
<rect width="716.35" height="235.5" fill="white" transform="translate(26 117)"/>
</clipPath>
<clipPath id="clip3_2077_5976">
<rect width="716.35" height="204" fill="white" transform="translate(26 117)"/>
</clipPath>
</defs>
</svg>
