<svg width="32" height="33" viewBox="0 0 32 33" fill="none" xmlns="http://www.w3.org/2000/svg">
<g clip-path="url(#clip0_1606_208)">
<path fill-rule="evenodd" clip-rule="evenodd" d="M16.0117 0.885742C7.157 0.885742 0.00012207 8.03535 0.00012207 16.8806C0.00012207 23.9512 4.58641 29.9362 10.9486 32.0544C11.7453 32.2137 12.0355 31.7104 12.0355 31.2868C12.0355 30.9161 12.0098 29.6449 12.0098 28.3206C7.55561 29.2742 6.62807 26.4139 6.62807 26.4139C5.91231 24.5603 4.85164 24.0837 4.85164 24.0837C3.39364 23.1039 4.95779 23.1039 4.95779 23.1039C6.57487 23.2099 7.42351 24.7458 7.42351 24.7458C8.85478 27.182 11.1612 26.4937 12.0892 26.0709C12.2216 25.0381 12.6461 24.323 13.0967 23.926C9.54408 23.5549 5.80642 22.1781 5.80642 16.0341C5.80642 14.2864 6.44226 12.8563 7.44973 11.7442C7.29064 11.3472 6.73396 9.70552 7.60907 7.50708C7.60907 7.50708 8.96093 7.08329 12.0095 9.14897C14.6308 8.44257 17.3946 8.44257 20.0158 9.14897C23.0647 7.08329 24.4166 7.50708 24.4166 7.50708C25.2904 9.70501 24.7345 11.3472 24.5756 11.7442C25.6096 12.8563 26.2205 14.2864 26.2205 16.0341C26.2205 22.1781 22.4828 23.5284 18.9038 23.926C19.4872 24.429 19.9904 25.3821 19.9904 26.8917C19.9904 29.0367 19.9647 30.7581 19.9647 31.2876C19.9647 31.7114 20.2564 32.2147 21.0516 32.0557C27.4143 29.937 32.0001 23.952 32.0001 16.8816C32.0237 8.03534 24.8393 0.885742 16.0117 0.885742Z" fill="#373737"/>
</g>
<defs>
<clipPath id="clip0_1606_208">
<rect width="32" height="32" fill="white" transform="translate(0 0.885742)"/>
</clipPath>
</defs>
</svg>
