<svg width="128" height="30" viewBox="0 0 128 30" fill="none" xmlns="http://www.w3.org/2000/svg">
<g clip-path="url(#clip0_1600_1238)">
<path d="M45.7284 17.1143C45.8993 17.4926 46.0412 17.884 46.153 18.2851C46.2649 18.6819 46.3483 19.0866 46.4027 19.496C45.8061 19.7301 45.1878 19.9008 44.5576 20.0053C43.9712 20.088 43.3799 20.1275 42.7881 20.1234C41.6702 20.1234 40.6902 19.9367 39.8478 19.5633C39.0353 19.2121 38.3101 18.6762 37.7265 17.9953C37.1409 17.2998 36.7007 16.487 36.4337 15.6078C36.1367 14.6328 35.9903 13.6158 35.9996 12.5938C35.9905 11.5669 36.1438 10.5452 36.4536 9.56916C36.7323 8.68384 37.1784 7.86436 37.7663 7.15819C38.3468 6.47355 39.0679 5.93092 39.8771 5.56974C40.7132 5.18987 41.6639 4.99993 42.7295 4.99993C43.3135 4.99674 43.897 5.0375 44.4753 5.12189C45.0683 5.2213 45.6479 5.39225 46.2022 5.63121C46.176 6.03753 46.0965 6.4383 45.9658 6.82255C45.8334 7.21283 45.6896 7.60311 45.5317 7.99339C45.1323 7.84802 44.7234 7.73258 44.3079 7.64799C43.8906 7.57446 43.4677 7.54017 43.0444 7.54554C41.7834 7.54554 40.8134 7.96998 40.1344 8.81884C39.4553 9.6677 39.1174 10.926 39.1206 12.5938C39.1206 15.9067 40.4821 17.5628 43.2052 17.5621C43.6349 17.5679 44.0643 17.5353 44.4885 17.4646C44.9098 17.3801 45.3242 17.263 45.7284 17.1143Z" fill="#373737"/>
<path d="M48.5508 9.35755C48.7485 9.31657 48.9358 9.28535 49.1136 9.26584C49.3067 9.24434 49.5009 9.23392 49.6952 9.23461C49.8901 9.23443 50.0847 9.24812 50.2778 9.27559C50.4669 9.30291 50.656 9.33706 50.8405 9.37316C50.8888 9.46539 50.925 9.56382 50.9483 9.66587C50.9814 9.79467 51.0107 9.93029 51.0372 10.0727C51.0637 10.2152 51.0873 10.3576 51.1062 10.5011C51.1251 10.6445 51.1431 10.7616 51.1554 10.8572C51.4536 10.4275 51.8129 10.0466 52.2212 9.72734C52.6418 9.3943 53.1682 9.22778 53.8006 9.22778C53.9324 9.22778 54.0837 9.23461 54.2546 9.24827C54.3825 9.25396 54.5094 9.27458 54.6329 9.30974C54.6618 9.46448 54.6817 9.62088 54.6924 9.77808C54.7047 9.95468 54.7123 10.1371 54.7123 10.3274C54.7123 10.5583 54.7022 10.8094 54.682 11.0806C54.664 11.3409 54.6276 11.5995 54.5733 11.8544C54.4137 11.8258 54.252 11.812 54.09 11.8134H53.7609C53.5094 11.8163 53.2586 11.8401 53.0109 11.8846C52.721 11.939 52.4492 12.0686 52.2212 12.2612C51.943 12.5099 51.7308 12.8276 51.6046 13.1843C51.4401 13.5921 51.3578 14.1622 51.3578 14.8947V19.9039C51.1226 19.9439 50.8855 19.971 50.6475 19.9849C50.4111 19.9986 50.1803 20.0054 49.9571 20.0054C49.734 20.0054 49.506 19.9986 49.2762 19.9849C49.0464 19.9713 48.8034 19.944 48.5556 19.9039L48.5508 9.35755Z" fill="#373737"/>
<path d="M55.2996 9.35769C55.5623 9.295 55.8302 9.25744 56.0997 9.24549C56.3298 9.23898 56.5435 9.2354 56.7409 9.23475C57.0038 9.23475 57.2733 9.24158 57.5495 9.25524C57.8018 9.26404 58.0529 9.2967 58.2994 9.35281L60.4311 18.5342L62.8389 9.35281C63.2825 9.27151 63.7323 9.232 64.1828 9.23475C64.3805 9.23475 64.5904 9.23475 64.8146 9.24549C65.0936 9.25936 65.371 9.29688 65.644 9.35769L61.8317 22.3677C61.7021 22.8199 61.5131 23.2516 61.27 23.6508C61.0771 23.964 60.8253 24.234 60.5295 24.445C60.2475 24.637 59.9326 24.7718 59.6017 24.8421C59.2382 24.9185 58.868 24.9557 58.4971 24.9534C58.1635 24.9561 57.8303 24.9323 57.5003 24.8821C57.2041 24.8342 56.9108 24.769 56.6217 24.687C56.61 24.6302 56.6036 24.5724 56.6028 24.5143V24.3611C56.602 24.0509 56.6385 23.7419 56.7115 23.441C56.7829 23.1538 56.872 22.8716 56.9782 22.5961C57.1329 22.6457 57.291 22.6832 57.4511 22.7083C57.6468 22.7416 57.8448 22.7586 58.0431 22.759C58.2012 22.7586 58.3591 22.7485 58.516 22.7288C58.682 22.7049 58.8405 22.6422 58.9794 22.5453C59.1525 22.4188 59.2973 22.2554 59.404 22.0662C59.5633 21.7795 59.6827 21.4711 59.7587 21.1501L60.0944 19.8885C59.9497 19.9012 59.789 19.9119 59.6112 19.9187C59.4334 19.9256 59.2527 19.9285 59.0683 19.9285H58.6541C58.5344 19.9297 58.4151 19.9163 58.2985 19.8885L55.2996 9.35769Z" fill="#373737"/>
<path d="M67.1203 9.33697C67.2992 9.29679 67.4806 9.26941 67.6632 9.25501C67.841 9.24135 68.0418 9.23452 68.2656 9.23452C68.6435 9.23558 69.0203 9.27677 69.3901 9.35746C69.439 9.44949 69.4756 9.54796 69.4989 9.65017C69.531 9.77896 69.5641 9.91849 69.5934 10.0678C69.6227 10.2171 69.653 10.3605 69.6729 10.5059C69.6927 10.6512 69.7088 10.7664 69.722 10.862C69.847 10.6345 69.9924 10.4196 70.1561 10.22C70.3351 10.0027 70.5445 9.81426 70.7775 9.6609C71.0324 9.49208 71.3078 9.35856 71.5965 9.26379C71.9219 9.15797 72.2616 9.10626 72.6027 9.1106C73.1483 9.10672 73.6889 9.21761 74.1916 9.43649C74.6906 9.65824 75.1331 9.99621 75.4844 10.4239C75.8767 10.911 76.1688 11.4754 76.3431 12.0826C76.5603 12.8492 76.6633 13.6453 76.6486 14.4438C76.6596 15.2513 76.5315 16.0544 76.2703 16.8157C76.0388 17.4843 75.6682 18.0924 75.1846 18.5974C74.6943 19.1 74.1046 19.4874 73.4558 19.7331C72.7083 20.0064 71.9193 20.1386 71.1265 20.1234C70.9033 20.1234 70.6826 20.1133 70.4644 20.0931C70.2479 20.0726 70.0663 20.0483 69.9225 20.0219V24.7053C69.6719 24.7463 69.4317 24.7726 69.2019 24.7873C68.9721 24.8019 68.7442 24.8068 68.521 24.8068C68.2978 24.8068 68.0698 24.7999 67.84 24.7873C67.6102 24.7746 67.3672 24.7463 67.1194 24.7053L67.1203 9.33697ZM69.9235 17.6431C70.3213 17.758 70.7332 17.8129 71.1463 17.8061C71.9622 17.8061 72.5873 17.5348 73.0217 16.9923C73.4561 16.4499 73.673 15.6286 73.6724 14.5287C73.6759 14.1362 73.6442 13.7443 73.5778 13.3578C73.5234 13.0298 73.4095 12.7154 73.2421 12.4309C73.0914 12.181 72.8852 11.9716 72.6406 11.8201C72.3717 11.6776 72.0747 11.6008 71.7725 11.5955C71.4703 11.5903 71.1709 11.6568 70.8976 11.7899C70.6719 11.9159 70.4796 12.0971 70.3377 12.3177C70.1864 12.5555 70.0793 12.8202 70.0218 13.0983C69.9556 13.4127 69.9239 13.7338 69.9273 14.0555L69.9235 17.6431Z" fill="#373737"/>
<path d="M79.1188 11.5559H77.8364L77.7371 11.1471L81.4255 6.28125H81.8785V9.35765H84.2665C84.3031 9.53904 84.3296 9.72245 84.3459 9.90697C84.3591 10.0702 84.3658 10.24 84.3658 10.4163C84.3658 10.6114 84.3591 10.789 84.3459 10.9656C84.3297 11.1621 84.3031 11.3575 84.2665 11.551H81.8813V15.6841C81.8725 16.0286 81.9059 16.3728 81.9806 16.7086C82.0288 16.9319 82.1259 17.1408 82.2643 17.3194C82.3858 17.4672 82.5476 17.5736 82.7287 17.6248C82.9408 17.6832 83.1598 17.7107 83.3794 17.7068C83.5746 17.7071 83.7695 17.6901 83.9619 17.656L84.4651 17.5643C84.5576 17.8246 84.6238 18.094 84.6627 18.3683C84.6992 18.6144 84.7188 18.8628 84.7214 19.1118C84.7214 19.2611 84.7214 19.3859 84.7119 19.4884C84.7024 19.5908 84.6949 19.6884 84.6826 19.7811C84.0682 19.9316 83.4387 20.007 82.8072 20.0055C81.6093 20.0055 80.6951 19.717 80.0646 19.1401C79.4341 18.5631 79.1188 17.6232 79.1188 16.3203V11.5559Z" fill="#373737"/>
<path d="M90.723 20.1234C89.8939 20.1234 89.1736 19.9842 88.562 19.7058C87.9746 19.4467 87.4541 19.0494 87.0422 18.5457C86.6321 18.0324 86.3236 17.4409 86.1343 16.805C85.9255 16.1061 85.8225 15.3781 85.8288 14.6467C85.8235 13.9088 85.9265 13.1742 86.1343 12.468C86.3211 11.8263 86.6297 11.2293 87.0422 10.7117C87.4557 10.207 87.9755 9.80653 88.562 9.54088C89.1742 9.25598 89.8945 9.11353 90.723 9.11353C91.5515 9.11353 92.2765 9.25598 92.8982 9.54088C93.4904 9.80644 94.0167 10.2067 94.4378 10.7117C94.8552 11.2259 95.1643 11.824 95.3457 12.468C95.5464 13.1756 95.6458 13.9096 95.6408 14.6467C95.6453 15.3779 95.5443 16.1056 95.341 16.806C95.1572 17.4442 94.8481 18.0367 94.4331 18.5466C94.0135 19.0507 93.4866 19.4478 92.8935 19.7068C92.275 19.9845 91.5515 20.1234 90.723 20.1234ZM90.723 17.9241C91.4594 17.9241 91.9887 17.6425 92.3109 17.0792C92.6331 16.5159 92.7945 15.7051 92.7951 14.6467C92.7951 13.5884 92.6337 12.7773 92.3109 12.2133C91.9881 11.6494 91.4588 11.3677 90.723 11.3684C89.9986 11.371 89.4743 11.6549 89.1502 12.2202C88.8262 12.7854 88.6651 13.5966 88.667 14.6536C88.667 15.7125 88.8281 16.5234 89.1502 17.086C89.4724 17.6487 89.9967 17.9293 90.723 17.928V17.9241Z" fill="#373737"/>
<path d="M97.851 5.24405C98.2344 5.16543 98.6242 5.1246 99.0151 5.12209C99.4243 5.12408 99.8323 5.16491 100.234 5.24405L105.719 14.5689V5.24405C106.169 5.16501 106.625 5.12422 107.081 5.12209C107.479 5.12114 107.876 5.16201 108.266 5.24405V19.8796C107.889 19.9561 107.506 19.997 107.122 20.0016C106.718 19.9979 106.315 19.9571 105.918 19.8796L100.392 10.5782V19.8835C99.9692 19.9649 99.5399 20.0057 99.1097 20.0055C98.6873 20.006 98.2659 19.9652 97.851 19.8835V5.24405Z" fill="#1890FF"/>
<path d="M113.259 15.5055C113.312 16.3199 113.588 16.9105 114.088 17.2774C114.588 17.6443 115.246 17.8274 116.061 17.8267C116.521 17.8257 116.98 17.7813 117.432 17.694C117.887 17.6098 118.332 17.4837 118.765 17.3174C118.926 17.6272 119.052 17.9544 119.143 18.2931C119.251 18.6918 119.31 19.1028 119.319 19.5167C118.292 19.9212 117.134 20.1235 115.844 20.1235C114.899 20.1235 114.086 19.9879 113.407 19.7167C112.779 19.4787 112.213 19.0933 111.753 18.5907C111.319 18.0956 110.996 17.508 110.807 16.8696C110.598 16.1642 110.495 15.4296 110.502 14.6918C110.495 13.9533 110.6 13.2182 110.812 12.513C111.008 11.8634 111.328 11.2609 111.753 10.7412C112.176 10.2333 112.701 9.82699 113.292 9.5508C113.904 9.25939 114.618 9.11336 115.434 9.11271C116.084 9.10151 116.729 9.23461 117.325 9.503C117.862 9.7497 118.343 10.1104 118.736 10.5616C119.133 11.0257 119.431 11.57 119.613 12.1598C119.814 12.8008 119.914 13.4708 119.909 14.1444C119.909 14.403 119.9 14.6567 119.88 14.9084C119.86 15.1601 119.837 15.3592 119.811 15.5085L113.259 15.5055ZM117.265 13.4887C117.238 12.8383 117.064 12.3124 116.742 11.911C116.42 11.5097 115.969 11.3097 115.391 11.311C114.732 11.311 114.232 11.5009 113.891 11.8808C113.549 12.2607 113.345 12.7966 113.279 13.4887H117.265Z" fill="#373737"/>
<path d="M122.396 11.5559H121.116L121.021 11.149L124.71 6.2832H125.164V9.35765H127.547C127.583 9.53914 127.609 9.72252 127.625 9.90697C127.639 10.0702 127.645 10.24 127.645 10.4163C127.645 10.6114 127.639 10.789 127.625 10.9656C127.609 11.162 127.583 11.3574 127.547 11.551H125.159V15.6841C125.149 16.0261 125.181 16.3679 125.254 16.7018C125.302 16.925 125.399 17.1339 125.537 17.3126C125.658 17.4603 125.82 17.5668 126.001 17.618C126.213 17.6763 126.432 17.7039 126.652 17.6999C126.847 17.7002 127.042 17.6832 127.234 17.6492L127.737 17.5575C127.83 17.8177 127.896 18.0872 127.935 18.3615C127.972 18.6075 127.991 18.856 127.993 19.1049C127.993 19.2542 127.993 19.3791 127.984 19.4816C127.974 19.584 127.967 19.6816 127.955 19.7743C127.34 19.9248 126.711 20.0001 126.079 19.9987C124.881 19.9987 123.967 19.7102 123.337 19.1332C122.706 18.5563 122.391 17.6163 122.391 16.3134L122.396 11.5559Z" fill="#373737"/>
</g>
<path fill-rule="evenodd" clip-rule="evenodd" d="M14.5862 2.08963C14.8491 1.97012 15.1509 1.97012 15.4138 2.08963L26.4138 7.08963C26.7708 7.2519 27 7.60786 27 8C27 8.39214 26.7708 8.7481 26.4138 8.91037L15.4138 13.9104C15.1509 14.0299 14.8491 14.0299 14.5862 13.9104L3.5862 8.91037C3.2292 8.7481 3 8.39214 3 8C3 7.60786 3.2292 7.2519 3.5862 7.08963L14.5862 2.08963ZM6.41661 8L15 11.9015L23.5834 8L15 4.09846L6.41661 8Z" fill="#1890FF"/>
<path fill-rule="evenodd" clip-rule="evenodd" d="M14.5862 16.0896C14.8491 15.9701 15.1509 15.9701 15.4138 16.0896L26.4138 21.0896C26.7708 21.2519 27 21.6079 27 22C27 22.3921 26.7708 22.7481 26.4138 22.9104L15.4138 27.9104C15.1509 28.0299 14.8491 28.0299 14.5862 27.9104L3.5862 22.9104C3.2292 22.7481 3 22.3921 3 22C3 21.6079 3.2292 21.2519 3.5862 21.0896L14.5862 16.0896ZM6.41661 22L15 25.9015L23.5834 22L15 18.0985L6.41661 22Z" fill="#1890FF"/>
<path fill-rule="evenodd" clip-rule="evenodd" d="M4 12C4.55228 12 5 12.4477 5 13V22C5 22.5523 4.55228 23 4 23C3.44772 23 3 22.5523 3 22V13C3 12.4477 3.44772 12 4 12Z" fill="#1890FF"/>
<path d="M4 16C5.10457 16 6 15.1046 6 14C6 12.8954 5.10457 12 4 12C2.89543 12 2 12.8954 2 14C2 15.1046 2.89543 16 4 16Z" fill="#1890FF"/>
<path fill-rule="evenodd" clip-rule="evenodd" d="M26 7C26.5523 7 27 7.44772 27 8V17C27 17.5523 26.5523 18 26 18C25.4477 18 25 17.5523 25 17V8C25 7.44772 25.4477 7 26 7Z" fill="#1890FF"/>
<path d="M26 18C27.1046 18 28 17.1046 28 16C28 14.8954 27.1046 14 26 14C24.8954 14 24 14.8954 24 16C24 17.1046 24.8954 18 26 18Z" fill="#1890FF"/>
<defs>
<clipPath id="clip0_1600_1238">
<rect width="92" height="20" fill="white" transform="translate(36 5)"/>
</clipPath>
</defs>
</svg>
