<svg width="32" height="33" viewBox="0 0 32 33" fill="none" xmlns="http://www.w3.org/2000/svg">
<path d="M23.7854 10.0895L20.9275 24.4978C20.9275 24.4978 20.5282 25.4972 19.4287 25.0176L12.834 19.9618L10.4359 18.8023L6.3993 17.4438C6.3993 17.4438 5.78 17.2238 5.72005 16.7442C5.6601 16.2646 6.41909 16.005 6.41909 16.005L22.4664 9.71C22.4664 9.71 23.7854 9.13027 23.7854 10.0895Z" fill="#373737"/>
<path d="M12.3273 24.3365C12.3273 24.3365 12.1349 24.3179 11.8951 23.5571C11.6553 22.7963 10.4359 18.8005 10.4359 18.8005L20.1283 12.6477C20.1283 12.6477 20.6876 12.3077 20.6679 12.6477C20.6679 12.6477 20.768 12.7076 20.4682 12.987C20.1685 13.2664 12.8543 19.8419 12.8543 19.8419" fill="#D3E6F2"/>
<path d="M15.3627 21.9001L12.7542 24.2784C12.7542 24.2784 12.5504 24.4331 12.3273 24.3384L12.8297 19.9187" fill="#B6D0E5"/>
</svg>
